<svg xmlns:xlink="http://www.w3.org/1999/xlink" width="467" xmlns="http://www.w3.org/2000/svg" height="467" id="screenshot-681a8f0e-0a2b-8096-8001-79757bea4b75" viewBox="0 0 467 467" style="-webkit-print-color-adjust: exact;" fill="none" version="1.1"><g id="shape-681a8f0e-0a2b-8096-8001-79757bea4b75"><defs><clipPath id="frame-clip-681a8f0e-0a2b-8096-8001-79757bea4b75-73aa1804-dad6-80f8-8001-7979dac189cc" class="frame-clip"><rect rx="0" ry="0" x="0" y="0" width="467" height="467" transform="matrix(1,0,0,1,0,0)" style="fill: rgb(255, 255, 255); fill-opacity: 0;"/></clipPath></defs><g clip-path="url(#frame-clip-681a8f0e-0a2b-8096-8001-79757bea4b75-73aa1804-dad6-80f8-8001-7979dac189cc)"><clipPath id="frame-clip-681a8f0e-0a2b-8096-8001-79757bea4b75-73aa1804-dad6-80f8-8001-7979dac189cc" class="frame-clip"><rect rx="0" ry="0" x="0" y="0" width="467" height="467" transform="matrix(1,0,0,1,0,0)" style="fill: rgb(255, 255, 255); fill-opacity: 0;"/></clipPath><g id="fills-681a8f0e-0a2b-8096-8001-79757bea4b75"><rect width="467" height="467" class="frame-background" x="0" transform="matrix(1,0,0,1,0,0)" style="fill: rgb(255, 255, 255); fill-opacity: 0;" ry="0" rx="0" y="0"/></g><g class="frame-children"><g id="shape-681a8f0e-0a2b-8096-8001-79773034ecbd" version="1.0" width="1220.000000pt" height="1280.000000pt" preserveAspectRatio="xMidYMid meet" rx="0" ry="0" style="fill: rgb(0, 0, 0);"><g id="shape-681a8f0e-0a2b-8096-8001-79773035927f" rx="0" ry="0" style="fill: rgb(0, 0, 0);"><g id="shape-681a8f0e-0a2b-8096-8001-7977303aaf91"><defs><radialGradient id="fill-color-gradient_73aa1804-dad6-80f8-8001-7979dac6664d_1" cx="0.8573397367428532" cy="0.7655657380363631" r="0.7367828648737409" gradientTransform="matrix(-2.10881,-2.019661,0.691676,-0.722207,2.135783,3.049999)"><stop offset="0" stop-color="#0d8abf" stop-opacity="1"/><stop offset="1" stop-color="#3798c1" stop-opacity="0"/></radialGradient><radialGradient id="fill-color-gradient_73aa1804-dad6-80f8-8001-7979dac6664d_0" cx="0.20669871110182694" cy="0.2762691019507361" r="1.3320307700328955" gradientTransform="matrix(-0.681859,0.731484,-0.731484,-0.681859,0.549724,0.313449)"><stop offset="0" stop-color="#7a0c78" stop-opacity="1"/><stop offset="1" stop-color="#571111" stop-opacity="0"/></radialGradient><pattern patternUnits="userSpaceOnUse" x="77.49999999999966" y="70" height="326.99999999999994" width="312" data-loading="false" patternTransform="matrix(1,0,0,1,0,0)" id="fill-0-73aa1804-dad6-80f8-8001-7979dac6664d"><g><rect width="312" height="326.99999999999994" style="fill: url(&quot;#fill-color-gradient_73aa1804-dad6-80f8-8001-7979dac6664d_1&quot;);"/><rect width="312" height="326.99999999999994" style="fill: url(&quot;#fill-color-gradient_73aa1804-dad6-80f8-8001-7979dac6664d_0&quot;);"/></g></pattern></defs><g id="fills-681a8f0e-0a2b-8096-8001-7977303aaf91"><path stroke="none" rx="0" ry="0" d="M205.246,81.087C201.027,87.193,197.575,92.302,197.575,92.481C197.575,92.635,202.535,95.956,208.57,99.864L219.565,106.941L219.641,114.784L219.692,122.652L218.619,122.013C214.067,119.408,197.396,110.109,197.217,110.109C196.859,110.109,182.54,133.407,182.821,133.586C182.975,133.663,188.319,136.831,194.711,140.637L206.32,147.535L206.192,152.644C206.141,155.454,206.013,159.184,205.936,160.921L205.757,164.115L201.282,166.491C198.828,167.819,195.58,169.531,194.097,170.323L191.412,171.753L183.997,167.845C179.932,165.699,176.557,163.885,176.505,163.859C176.454,163.808,176.787,157.37,177.221,149.553C177.656,141.71,177.963,135.272,177.912,135.221C177.809,135.093,176.557,134.966,160.013,133.101C153.697,132.385,148.507,131.823,148.481,131.875C148.456,131.926,148.302,138.772,148.149,147.126C147.995,155.454,147.816,162.326,147.765,162.403C147.637,162.531,134.341,155.403,133.83,154.969C133.6,154.739,133.344,150.754,132.858,139.998C132.5,131.926,132.168,125.181,132.142,125.054C132.065,124.824,104.757,125.973,104.527,126.229C104.476,126.28,104.604,128.17,104.783,130.418C106.215,146.973,106.7,152.695,106.828,154.688L107.007,156.987L94.376,162.837C87.421,166.056,81.642,168.764,81.514,168.892C81.412,168.994,83.995,174.768,87.268,181.742L93.225,194.388L98.62,191.629C101.561,190.096,106.931,187.362,110.51,185.523L117.031,182.202L123.628,185.983C127.258,188.052,130.276,189.815,130.352,189.891C130.429,189.943,125.469,192.983,119.357,196.585L108.235,203.176L109.948,206.395C118.488,222.438,121.147,227.369,121.352,227.369C121.454,227.369,126.926,224.38,133.446,220.701C139.992,217.048,145.49,214.11,145.643,214.187C145.796,214.263,148.967,216.179,152.7,218.478L159.476,222.643L159.399,230.051C159.348,234.139,159.272,237.817,159.195,238.226C159.067,238.916,158.325,239.452,151.78,243.514L144.518,248.036L143.035,247.065C134.878,241.649,120.636,232.478,120.457,232.529C120.201,232.631,102.763,256.237,102.865,256.339C102.916,256.39,108.874,259.941,116.11,264.284C125.136,269.674,129.125,272.204,128.895,272.357C128.69,272.459,125.571,274.375,121.94,276.623L115.343,280.685L102.021,273.787C94.708,270.006,88.648,267.018,88.52,267.12C88.418,267.247,85.887,272.076,82.921,277.875L77.5,288.375L77.577,290.342L77.653,292.309L90.745,298.44C103.197,304.29,103.862,304.622,103.837,305.261C103.837,305.619,103.3,311.98,102.635,319.389L101.408,332.877L102.2,333.005C103.811,333.261,129.176,335.253,129.304,335.125C129.432,334.998,129.688,330.731,130.173,320.615C130.327,317.728,130.506,313.87,130.608,312.006L130.761,308.659L137.41,304.776C141.066,302.655,144.109,300.944,144.16,300.995C144.211,301.046,144.339,306.845,144.416,313.896L144.595,326.669L147.944,326.823C155.564,327.18,171.877,327.589,172.056,327.41C172.159,327.334,172.312,321.151,172.389,313.692C172.491,306.053,172.67,300.075,172.798,299.947C172.926,299.82,176.147,297.98,179.983,295.86L186.938,292.002L192.512,295.349C195.58,297.214,198.725,299.155,199.518,299.692L200.95,300.663L201.103,303.933C201.206,305.721,201.359,309.579,201.436,312.465L201.615,317.728L188.856,324.166C181.849,327.717,176.071,330.655,176.045,330.68C175.968,330.731,187.705,357.709,187.858,357.862C187.909,357.913,193.969,354.618,201.333,350.53L214.706,343.096L214.86,345.446C214.962,346.749,215.09,350.402,215.192,353.57L215.346,359.318L202.714,367.366C194.685,372.475,190.083,375.541,190.16,375.745C190.236,375.924,193.305,380.778,196.987,386.526L203.711,396.974L205.68,397L207.624,397L216.547,390.792C221.431,387.394,226.545,383.818,227.9,382.873L230.355,381.186L241.657,389.08C248.356,393.781,253.189,397,253.521,397C253.981,396.974,255.669,394.701,261.754,385.913C265.973,379.807,269.425,374.698,269.425,374.519C269.425,374.365,264.49,371.044,258.43,367.136L247.435,360.059L247.359,352.216L247.308,344.348L248.381,344.987C252.933,347.592,269.604,356.891,269.783,356.891C269.988,356.891,284.486,333.644,284.332,333.542C284.307,333.49,279.244,330.501,273.133,326.874C267.022,323.246,261.729,320.078,261.371,319.848L260.732,319.389L261.064,311.137C261.269,306.59,261.422,302.86,261.448,302.834C261.473,302.809,264.618,301.071,268.454,298.977L275.383,295.145L282.773,299.053C286.813,301.225,290.239,303.013,290.367,303.064C290.469,303.09,290.213,309.553,289.779,317.421C289.344,325.264,289.037,331.728,289.088,331.779C289.191,331.907,290.443,332.034,306.987,333.899C313.303,334.615,318.493,335.177,318.519,335.125C318.544,335.074,318.698,328.228,318.851,319.874C319.005,311.546,319.184,304.674,319.235,304.597C319.363,304.469,332.659,311.597,333.17,312.031C333.4,312.261,333.656,316.246,334.142,327.002C334.5,335.074,334.832,341.819,334.858,341.946C334.935,342.176,362.243,341.027,362.473,340.771C362.524,340.72,362.396,338.83,362.217,336.582C360.785,320.027,360.3,314.305,360.172,312.312L359.993,310.013L372.624,304.163C379.579,300.944,385.358,298.236,385.486,298.108C385.588,298.006,383.005,292.232,379.732,285.258L373.775,272.612L368.38,275.371C365.439,276.904,360.069,279.638,356.49,281.477L349.969,284.798L343.372,281.017C339.742,278.948,336.724,277.185,336.648,277.109C336.571,277.057,341.531,274.017,347.643,270.415L358.765,263.824L357.052,260.605C348.512,244.562,345.853,239.631,345.648,239.631C345.546,239.631,340.1,242.62,333.554,246.273L321.664,252.941L319.951,251.919C319.03,251.332,315.86,249.365,312.894,247.474L307.524,244.102L307.601,237.843C307.626,234.394,307.728,230.766,307.805,229.796L307.959,227.982L315.22,223.486L322.482,218.964L323.965,219.935C332.122,225.351,346.364,234.522,346.543,234.471C346.799,234.369,364.237,210.763,364.135,210.661C364.084,210.61,358.126,207.059,350.89,202.716C341.864,197.326,337.875,194.796,338.105,194.643C338.31,194.541,341.429,192.625,345.06,190.377L351.657,186.315L364.979,193.213C372.292,196.994,378.352,199.983,378.48,199.88C378.582,199.753,381.113,194.924,384.079,189.125L389.5,178.625L389.423,176.658L389.347,174.691L376.255,168.56C363.803,162.71,363.138,162.378,363.163,161.739C363.163,161.381,363.7,155.02,364.365,147.611L365.592,134.123L364.8,133.995C363.189,133.739,337.824,131.747,337.696,131.875C337.568,132.002,337.312,136.269,336.827,146.385C336.673,149.272,336.494,153.13,336.392,154.994L336.239,158.341L329.59,162.224C325.934,164.345,322.891,166.056,322.84,166.005C322.789,165.954,322.661,160.155,322.584,153.104L322.405,140.331L319.056,140.177C311.411,139.82,295.123,139.411,294.944,139.59C294.841,139.692,294.688,145.849,294.611,153.283C294.509,160.717,294.407,166.848,294.33,166.899C294.049,167.155,279.244,174.231,279.014,174.231C278.681,174.231,276.534,172.903,270.806,169.173L266.05,166.056L265.897,163.042C265.794,161.407,265.641,157.626,265.564,154.662L265.385,149.272L278.144,142.809C285.151,139.283,290.929,136.345,290.955,136.32C291.032,136.269,279.295,109.291,279.142,109.138C279.091,109.087,273.031,112.382,265.667,116.47L252.294,123.904L252.14,121.554C252.038,120.251,251.91,116.598,251.808,113.43L251.654,107.682L264.286,99.634C272.545,94.372,276.917,91.459,276.84,91.255C276.764,91.051,273.695,86.222,270.013,80.474L263.289,70.026L261.32,70L259.376,70L250.453,76.208C245.569,79.606,240.455,83.182,239.1,84.127L236.645,85.814L225.343,77.92C218.644,73.219,213.811,70,213.479,70C213.019,70.026,211.331,72.299,205.246,81.087ZZ" fill="url(#fill-0-73aa1804-dad6-80f8-8001-7979dac6664d)"/></g></g></g></g><g id="shape-681a8f0e-0a2b-8096-8001-7976fb2d5cc5" rx="0" ry="0"><g id="shape-681a8f0e-0a2b-8096-8001-7975b0cd9a0e"><g id="fills-681a8f0e-0a2b-8096-8001-7975b0cd9a0e"><path rx="0" ry="0" d="M44,216.5C44,216.5,31.312,271.21,56.118,275.067C69.888,277.209,97,266.5,97,266.5L97,177.5M97,266.5L97,278.5"/></g><g id="strokes-681a8f0e-0a2b-8096-8001-7975b0cd9a0e"><g class="stroke-shape"><path rx="0" ry="0" d="M44,216.5C44,216.5,31.312,271.21,56.118,275.067C69.888,277.209,97,266.5,97,266.5L97,177.5M97,266.5L97,278.5" style="fill: none; stroke-width: 20; stroke: rgb(255, 255, 255); stroke-opacity: 1;"/></g></g></g><g id="shape-681a8f0e-0a2b-8096-8001-7976ba473490"><g id="fills-681a8f0e-0a2b-8096-8001-7976ba473490"><path rx="0" ry="0" d="M423,245.5C423,245.5,435.688,190.79,410.882,186.933C397.112,184.791,370,195.5,370,195.5L370,284.5M370,195.5L370,183.5"/></g><g id="strokes-681a8f0e-0a2b-8096-8001-7976ba473490"><g class="stroke-shape"><path rx="0" ry="0" d="M423,245.5C423,245.5,435.688,190.79,410.882,186.933C397.112,184.791,370,195.5,370,195.5L370,284.5M370,195.5L370,183.5" style="fill: none; stroke-width: 20; stroke: rgb(255, 255, 255); stroke-opacity: 1;"/></g></g></g><g id="shape-681a8f0e-0a2b-8096-8001-7976990ed49c"><g id="fills-681a8f0e-0a2b-8096-8001-7976990ed49c"><path rx="0" ry="0" d="M146,177.5L177,177.5L177,289.5L209,289.5"/></g><g id="strokes-681a8f0e-0a2b-8096-8001-7976990ed49c"><g class="stroke-shape"><path rx="0" ry="0" d="M146,177.5L177,177.5L177,289.5L209,289.5" style="fill: none; stroke-width: 20; stroke: rgb(255, 255, 255); stroke-opacity: 1;"/></g></g></g><g id="shape-681a8f0e-0a2b-8096-8001-7976ad63ad01"><g id="fills-681a8f0e-0a2b-8096-8001-7976ad63ad01"><path rx="0" ry="0" d="M258,178L289,178L289,290L321,290"/></g><g id="strokes-681a8f0e-0a2b-8096-8001-7976ad63ad01"><g class="stroke-shape"><path rx="0" ry="0" d="M258,178L289,178L289,290L321,290" style="fill: none; stroke-width: 20; stroke: rgb(255, 255, 255); stroke-opacity: 1;"/></g></g></g></g></g></g></g></svg>